# xmcd CD database file
#
# Track frame offsets:
#	150
#	15271
#	29991
#	44828
#	59837
#	74420
#	89581
#	102059
#	116339
#	143537
#	156254
#	171467
#	186259
#	201239
#	215987
#	230869
#	246180
#	261074
#	275195
#	287759
#
# Disc length: 4007 seconds
#
# Revision: 0
# Processed by: cddbd v1.5.2PL0 Copyright (c) Steve Scherf et al.
# Submitted via: CDex 1.70beta2
#
DISCID=490fa514
DTITLE=Lionel Hampton - Essential Recordings - CD 2
DYEAR=2018
DGENRE=Jazz
TTITLE0=Hey! Ba-Ba-Re-Bop
TTITLE1=Hamp's Boogie Woogie
TTITLE2=Evil Gal Blues (Live)
TTITLE3=Blow Top Blues
TTITLE4=Beulah's Boogie
TTITLE5=Playboy
TTITLE6=Slide, Hamp, Slide
TTITLE7=Hamp's Salty Blues
TTITLE8=Air Mail Special Parts 1 and 2
TTITLE9=Tempo's Birthday
TTITLE10=Adam Blew His Hat
TTITLE11=How High The Moon
TTITLE12=Midnight Sun
TTITLE13=Chicken Shack Boogie
TTITLE14=Benson's Boogie
TTITLE15=Drinkin' Wine Spo-Dee-O-Dee
TTITLE16=Moonglow
TTITLE17=The Hucklebuck
TTITLE18=Lavender Coffin
TTITLE19=Rag Mop
EXTD=YEAR: 2018
EXTT0=
EXTT1=
EXTT2=
EXTT3=
EXTT4=
EXTT5=
EXTT6=
EXTT7=
EXTT8=
EXTT9=
EXTT10=
EXTT11=
EXTT12=
EXTT13=
EXTT14=
EXTT15=
EXTT16=
EXTT17=
EXTT18=
EXTT19=
PLAYORDER=
